# Blender 5.2.0 LTS
# www.blender.org
mtllib ceiling.mtl
o Sphere.013
v -0.003655 0.040020 1.415592
v -0.170719 0.392586 1.171660
v 0.027556 0.228981 1.271201
v -0.060635 0.338172 1.436923
v -0.290766 0.306642 1.400119
v -0.161844 0.338439 1.615308
v -0.229085 0.416366 1.408130
v -0.022533 0.146863 1.458499
v -0.278446 0.364434 1.577496
v -0.326696 0.157616 1.412297
v -0.098211 0.216952 1.592817
v -0.299148 0.229861 1.755111
v -0.352855 0.153126 1.645324
v -0.276521 0.019130 1.799580
v -0.202636 0.072358 1.769467
v -0.331811 0.006573 1.754656
v -0.107157 0.032884 1.642258
v -0.178193 -0.135247 1.681292
v -0.272716 -0.170809 1.675003
v -0.340524 -0.082722 1.634531
v -0.317533 -0.117422 1.456873
v -0.150752 -0.272231 1.506264
v -0.260044 -0.246084 1.481152
v -0.333311 0.020316 1.423835
v -0.146004 -0.306993 1.273245
v -0.037444 -0.116132 1.450498
v -0.192988 -0.221963 1.180436
v -0.022980 -0.249341 1.232390
v -0.226930 -0.106604 1.154251
v -0.052058 -0.221678 1.007379
v 0.051855 -0.115122 1.021538
v 0.014805 -0.099573 0.907432
v 0.053506 -0.077596 1.170678
v -0.116446 -0.076721 0.953225
v 0.058504 0.052989 0.874732
v -0.049218 0.010611 0.862443
v -0.121836 0.141664 0.938772
v 0.049565 0.078336 1.238688
v -0.206599 0.081940 1.067331
v 0.006471 0.223412 0.882485
v 0.076235 0.170883 1.001736
v -0.081048 0.301439 0.961274
v -0.000400 0.360260 1.052654
v -0.004692 0.361035 1.211021
v -0.095737 0.440008 1.226737
v -0.139559 0.436189 1.422937
v -0.226392 0.247694 1.152622
v -0.268383 0.079185 1.210127
v 0.000000 -1.000000 0.000000
v 0.723607 -0.447220 0.762440
v -0.276388 -0.447220 1.233665
v -0.894426 -0.447216 0.000000
v -0.276388 -0.447220 -1.233665
v 0.723607 -0.447220 -0.762440
v 0.276388 0.447220 1.233665
v -0.723607 0.447220 0.762440
v -0.723607 0.447220 -0.762440
v 0.276388 0.447220 -1.233665
v 0.894426 0.447216 -0.000000
v 0.000000 1.000000 -0.000000
v -0.162456 -0.850654 0.725125
v 0.425323 -0.850654 0.448148
v 0.262869 -0.525738 1.173280
v 0.850648 -0.525736 0.000000
v 0.425323 -0.850654 -0.448148
v -0.525730 -0.850652 0.000000
v -0.688189 -0.525736 0.725127
v -0.162456 -0.850654 -0.725125
v -0.688189 -0.525736 -0.725127
v 0.262869 -0.525738 -1.173280
v 0.951058 0.000000 0.448150
v 0.951058 -0.000000 -0.448150
v 0.000000 0.000000 1.373089
v 0.587786 0.000000 1.173287
v -0.951058 0.000000 0.448150
v -0.587786 0.000000 1.173287
v -0.587786 -0.000000 -1.173287
v -0.951058 -0.000000 -0.448150
v 0.587786 -0.000000 -1.173287
v 0.000000 -0.000000 -1.409172
v 0.688189 0.525736 0.725127
v -0.262869 0.525738 1.173280
v -0.850648 0.525736 -0.000000
v -0.262869 0.525738 -1.173280
v 0.688189 0.525736 -0.725127
v 0.162456 0.850654 0.725125
v 0.525730 0.850652 -0.000000
v -0.425323 0.850654 0.448148
v -0.425323 0.850654 -0.448148
v 0.162456 0.850654 -0.725125
v 0.169324 0.212582 -1.240654
v 0.186060 0.020190 -1.537694
v 0.194943 -0.136071 -1.488486
v 0.296523 0.128681 -1.425527
v 0.388805 -0.054005 -1.395797
v 0.369611 -0.146179 -1.256833
v 0.435074 -0.024502 -1.129732
v 0.368307 0.151348 -1.163825
v 0.314953 0.076702 -0.893829
v 0.334917 -0.134016 -0.948677
v 0.258452 -0.222050 -1.192202
v 0.167602 0.153150 -0.911867
v 0.122224 -0.178208 -0.962514
v 0.085913 -0.037066 -0.839353
v 0.057129 0.155632 -1.005148
v -0.055154 0.046873 -1.105984
v -0.028915 -0.115078 -1.090924
v 0.002623 0.132654 -1.273355
v 0.063808 -0.199317 -1.287198
v -0.023506 -0.053375 -1.378312
v 0.067909 0.083377 -1.467427
v 0.112143 -0.219749 -1.188958
v -0.115872 0.226341 -1.240654
v -0.132608 0.033950 -1.537694
v -0.141491 -0.122312 -1.488486
v -0.243071 0.142440 -1.425527
v -0.335353 -0.040246 -1.395797
v -0.316159 -0.132420 -1.256833
v -0.381622 -0.010742 -1.129732
v -0.314855 0.165108 -1.163825
v -0.261501 0.090461 -0.893829
v -0.281465 -0.120256 -0.948677
v -0.205001 -0.208290 -1.192202
v -0.114150 0.166910 -0.911867
v -0.068772 -0.164448 -0.962514
v -0.032461 -0.023307 -0.839353
v -0.003677 0.169391 -1.005148
v 0.108606 0.060633 -1.105984
v 0.082367 -0.101319 -1.090924
v 0.050829 0.146414 -1.273355
v -0.010356 -0.185557 -1.287198
v 0.076958 -0.039615 -1.378312
v -0.014457 0.097137 -1.467427
v -0.058691 -0.205990 -1.188958
v 1.083643 -0.260714 -0.517678
v 0.802298 -0.513539 -0.837644
v 0.933792 -0.232666 -0.689167
v 1.099065 -0.336387 -0.788261
v 1.030336 -0.654437 -0.759646
v 1.276163 -0.456611 -0.788503
v 1.046782 -0.569378 -0.859225
v 1.126942 -0.282166 -0.614641
v 1.220919 -0.619694 -0.812095
v 1.038703 -0.702283 -0.624400
v 1.260358 -0.371968 -0.678249
v 1.407519 -0.630033 -0.689965
v 1.283649 -0.714478 -0.620325
v 1.457805 -0.594636 -0.498719
v 1.435194 -0.496759 -0.547026
v 1.402846 -0.674692 -0.487323
v 1.311892 -0.379194 -0.511201
v 1.344375 -0.472278 -0.358617
v 1.325551 -0.602021 -0.326343
v 1.273731 -0.698725 -0.406285
v 1.087376 -0.685264 -0.374793
v 1.161393 -0.452473 -0.234299
v 1.120620 -0.604289 -0.258028
v 1.050150 -0.710153 -0.499796
v 0.913711 -0.469521 -0.202751
v 1.116504 -0.303340 -0.375964
v 0.808793 -0.543069 -0.279919
v 0.885955 -0.305612 -0.255072
v 0.776539 -0.592075 -0.384611
v 0.642467 -0.368054 -0.280177
v 0.670880 -0.224691 -0.376881
v 0.544544 -0.286821 -0.390993
v 0.830008 -0.207374 -0.410937
v 0.576507 -0.461470 -0.411731
v 0.515306 -0.230436 -0.529448
v 0.488396 -0.378812 -0.490988
v 0.560415 -0.470291 -0.609923
v 0.901971 -0.205888 -0.552451
v 0.686529 -0.573084 -0.555722
v 0.516893 -0.300723 -0.684113
v 0.652907 -0.193391 -0.636441
v 0.589622 -0.412307 -0.754925
v 0.697334 -0.292922 -0.808307
v 0.865531 -0.282791 -0.809010
v 0.870601 -0.405560 -0.880681
v 1.074041 -0.445600 -0.877215
v 0.774872 -0.591505 -0.706149
v 0.830761 -0.643052 -0.553221
v -0.827228 -0.649225 -0.517678
v -1.108574 -0.396400 -0.837644
v -0.977080 -0.677273 -0.689167
v -0.811807 -0.573552 -0.788261
v -0.880536 -0.255502 -0.759646
v -0.634709 -0.453328 -0.788503
v -0.864090 -0.340561 -0.859225
v -0.783929 -0.627773 -0.614641
v -0.689953 -0.290245 -0.812095
v -0.872168 -0.207656 -0.624400
v -0.650514 -0.537971 -0.678249
v -0.503352 -0.279906 -0.689965
v -0.627223 -0.195461 -0.620325
v -0.453066 -0.315304 -0.498719
v -0.475678 -0.413180 -0.547026
v -0.508025 -0.235247 -0.487323
v -0.598980 -0.530745 -0.511201
v -0.566497 -0.437662 -0.358617
v -0.585321 -0.307919 -0.326343
v -0.637141 -0.211214 -0.406285
v -0.823495 -0.224675 -0.374793
v -0.749478 -0.457466 -0.234299
v -0.790252 -0.305650 -0.258028
v -0.860722 -0.199786 -0.499796
v -0.997161 -0.440418 -0.202751
v -0.794368 -0.606599 -0.375964
v -1.102079 -0.366870 -0.279919
v -1.024916 -0.604328 -0.255072
v -1.134333 -0.317865 -0.384611
v -1.268404 -0.541885 -0.280177
v -1.239991 -0.685248 -0.376881
v -1.366328 -0.623118 -0.390993
v -1.080864 -0.702565 -0.410937
v -1.334365 -0.448469 -0.411731
v -1.395566 -0.679503 -0.529448
v -1.422475 -0.531127 -0.490988
v -1.350457 -0.439648 -0.609923
v -1.008901 -0.704051 -0.552451
v -1.224342 -0.336856 -0.555722
v -1.393978 -0.609216 -0.684113
v -1.257964 -0.716548 -0.636441
v -1.321249 -0.497632 -0.754925
v -1.213537 -0.617017 -0.808307
v -1.045340 -0.627148 -0.809010
v -1.040270 -0.504379 -0.880681
v -0.836831 -0.464339 -0.877215
v -1.136000 -0.318434 -0.706149
v -1.080111 -0.266887 -0.553221
v 0.007463 0.545821 1.121397
v -0.258371 0.402020 1.358354
v -0.135014 0.579619 1.263643
v -0.217343 0.492960 1.099585
v -0.193569 0.283951 1.132210
v -0.217544 0.393938 0.922893
v -0.276301 0.340039 1.125286
v -0.073096 0.526999 1.078981
v -0.237144 0.288738 0.958240
v -0.081204 0.250665 1.119706
v -0.125943 0.452923 0.945947
v -0.135677 0.263333 0.783534
v -0.077819 0.218249 0.890509
v 0.023214 0.282392 0.740216
v -0.016920 0.351025 0.770910
v 0.032682 0.233494 0.783482
v 0.012844 0.442941 0.897267
v 0.139614 0.376586 0.857857
v 0.166427 0.290417 0.862591
v 0.100010 0.229914 0.901294
v 0.126174 0.257414 1.076079
v 0.242899 0.408057 1.030128
v 0.223185 0.309075 1.053117
v 0.022320 0.244197 1.108276
v 0.269110 0.420903 1.258990
v 0.125202 0.513662 1.086609
v 0.204997 0.381345 1.349398
v 0.225641 0.534844 1.300980
v 0.118017 0.351276 1.374591
v 0.204783 0.516478 1.521464
v 0.124440 0.610943 1.509147
v 0.112715 0.581242 1.620617
v 0.096145 0.607008 1.362738
v 0.095486 0.459601 1.573653
v -0.002316 0.622379 1.653389
v 0.029637 0.524364 1.663812
v -0.069177 0.455202 1.587762
v -0.021427 0.600923 1.295902
v -0.024145 0.373032 1.460243
v -0.130814 0.574535 1.644984
v -0.091208 0.633950 1.528961
v -0.189647 0.491662 1.566290
v -0.233997 0.562044 1.477798
v -0.234582 0.552340 1.322240
v -0.294127 0.468546 1.305420
v -0.291248 0.421330 1.112113
v -0.149122 0.351826 1.376198
v -0.022068 0.311346 1.319096
v 0.262277 0.040020 1.226743
v 0.095214 0.392586 1.470675
v 0.293488 0.228981 1.371133
v 0.205298 0.338172 1.205412
v -0.024834 0.306642 1.242215
v 0.104088 0.338439 1.027026
v 0.036847 0.416366 1.234204
v 0.243399 0.146863 1.183835
v -0.012513 0.364434 1.064838
v -0.060764 0.157616 1.230038
v 0.167721 0.216952 1.049518
v -0.033215 0.229861 0.887224
v -0.086922 0.153126 0.997011
v -0.010588 0.019130 0.842754
v 0.063296 0.072358 0.872868
v -0.065878 0.006572 0.887678
v 0.158775 0.032884 1.000077
v 0.087740 -0.135247 0.961042
v -0.006784 -0.170809 0.967332
v -0.074592 -0.082722 1.007803
v -0.051600 -0.117422 1.185462
v 0.115181 -0.272231 1.136071
v 0.005889 -0.246084 1.161182
v -0.067379 0.020316 1.218499
v 0.119929 -0.306993 1.369090
v 0.228489 -0.116132 1.191837
v 0.072945 -0.221963 1.461899
v 0.242953 -0.249341 1.409945
v 0.039003 -0.106604 1.488084
v 0.213874 -0.221678 1.634955
v 0.317787 -0.115122 1.620797
v 0.280737 -0.099572 1.734903
v 0.319438 -0.077596 1.471657
v 0.149486 -0.076721 1.689109
v 0.324436 0.052989 1.767602
v 0.216714 0.010611 1.779891
v 0.144096 0.141664 1.703563
v 0.315497 0.078336 1.403646
v 0.059333 0.081940 1.575004
v 0.272404 0.223412 1.759850
v 0.342167 0.170883 1.640599
v 0.184884 0.301439 1.681061
v 0.265533 0.360260 1.589681
v 0.261240 0.361035 1.431313
v 0.170195 0.440008 1.415597
v 0.126374 0.436189 1.219398
v 0.039540 0.247694 1.489713
v -0.002451 0.079185 1.432208
vn -0.9393 0.1251 -0.3194
vn 0.6892 0.6106 0.3901
vn -0.2452 0.9446 0.2182
vn 0.8945 0.2219 0.3882
vn -0.0175 0.7979 0.6025
vn -0.9464 0.3208 -0.0388
vn 0.8857 0.0798 0.4574
vn 0.7228 0.2601 0.6402
vn -0.9931 0.0385 -0.1107
vn 0.2249 0.2242 0.9482
vn 0.9097 -0.0060 0.4152
vn -0.9918 -0.0571 0.1144
vn -0.9583 0.0222 -0.2850
vn -0.9854 -0.1370 -0.1008
vn 0.1482 -0.5403 0.8283
vn -0.4812 -0.4875 0.7285
vn 0.9059 -0.1043 0.4104
vn 0.7918 -0.4145 0.4486
vn -0.8165 -0.5542 0.1618
vn 0.8375 -0.2399 0.4909
vn -0.2602 -0.9557 0.1373
vn -0.7359 -0.6419 -0.2156
vn -0.8719 -0.4328 -0.2291
vn -0.9013 -0.3291 -0.2816
vn -0.9411 -0.1769 -0.2881
vn 0.4580 -0.8778 0.1403
vn -0.9413 -0.1145 -0.3175
vn 0.3746 -0.9132 -0.1607
vn 0.9471 -0.1405 0.2885
vn -0.1586 0.8716 -0.4638
vn -0.5162 -0.7455 -0.4216
vn -0.6702 -0.5019 -0.5466
vn 0.9212 -0.3796 0.0853
vn 0.7001 -0.6409 -0.3147
vn -0.8599 -0.1343 -0.4925
vn -0.2952 -0.5032 -0.8122
vn -0.4230 -0.4759 -0.7711
vn 0.9992 -0.0403 -0.0009
vn -0.7733 -0.0609 -0.6312
vn 0.9944 -0.0202 0.1040
vn 0.0853 0.0713 -0.9938
vn 0.8767 0.2853 -0.3872
vn -0.5387 0.2176 -0.8139
vn 0.9820 0.1103 0.1536
vn -0.8561 0.1519 -0.4939
vn -0.8008 0.2791 -0.5299
vn 0.9526 0.2832 0.1110
vn 0.6566 0.7541 0.0141
vn 0.9535 0.0490 0.2975
vn -0.4195 0.8871 -0.1927
vn 0.9047 0.3387 0.2583
vn 0.7374 0.6289 0.2463
vn -0.9351 0.2017 -0.2913
vn -0.2116 0.9769 -0.0283
vn -0.8348 0.4879 -0.2551
vn 0.9138 0.2205 0.3410
vn -0.8641 0.4931 -0.1006
vn 0.0498 0.8881 0.4570
vn 0.8174 0.3424 0.4633
vn -0.9687 0.2250 -0.1044
vn 0.4979 0.3763 0.7813
vn -0.9082 0.3777 0.1803
vn 0.8113 0.1146 0.5734
vn -0.6404 0.0921 0.7625
vn -0.9240 0.1344 0.3580
vn -0.9971 -0.0495 -0.0583
vn 0.7603 -0.1761 0.6253
vn 0.5278 -0.2787 0.8024
vn -0.8078 -0.4435 0.3883
vn -0.9098 -0.4135 -0.0370
vn 0.2393 -0.7460 0.6214
vn -0.2907 -0.8982 0.3298
vn 0.9142 -0.3160 0.2536
vn 0.8145 -0.4695 0.3408
vn -0.7993 -0.3466 -0.4908
vn 0.7164 -0.6753 -0.1756
vn 0.9588 -0.0928 0.2684
vn -0.9139 -0.0845 -0.3970
vn 0.2106 -0.2622 -0.9418
vn 0.8857 -0.3248 -0.3318
vn 0.9930 -0.1135 -0.0333
vn -0.8209 -0.0579 -0.5681
vn -0.4651 0.2388 -0.8525
vn 0.8498 0.4270 -0.3091
vn 0.1347 0.7748 -0.6177
vn -0.7874 0.3676 -0.4949
vn 0.9289 0.3696 0.0234
vn -0.9144 0.0935 -0.3938
vn 0.9542 0.0770 0.2890
vn 0.6624 0.7314 0.1622
vn -0.8709 0.3762 -0.3161
vn 0.1052 -0.9691 0.2232
vn 0.7138 -0.6745 0.1884
vn -0.2707 -0.9530 0.1356
vn -0.2707 -0.9530 -0.1356
vn 0.1052 -0.9691 -0.2232
vn 0.9225 -0.3368 0.1884
vn 0.0576 -0.3294 0.9424
vn -0.9138 -0.3393 0.2232
vn -0.6839 -0.3932 -0.6145
vn 0.6470 -0.3999 -0.6492
vn 0.8855 -0.1386 0.4436
vn -0.3204 -0.0958 0.9424
vn -0.9921 -0.1256 -0.0000
vn -0.3691 -0.1328 -0.9198
vn 0.8855 -0.1386 -0.4436
vn 0.4593 0.7431 0.4866
vn -0.5199 0.7300 0.4436
vn -0.7138 0.6745 -0.1884
vn 0.0459 0.7876 -0.6145
vn 0.7314 0.6684 -0.1356
vn 0.2707 0.9530 -0.1356
vn 0.5084 0.8226 -0.2547
vn 0.4593 0.7431 -0.4866
vn -0.1052 0.9691 -0.2232
vn -0.2065 0.8748 -0.4382
vn -0.5199 0.7300 -0.4436
vn -0.3313 0.9435 -0.0000
vn -0.6071 0.7947 -0.0000
vn -0.7138 0.6745 0.1884
vn -0.1052 0.9691 0.2232
vn -0.2065 0.8748 0.4382
vn 0.0459 0.7876 0.6145
vn 0.2707 0.9530 0.1356
vn 0.5084 0.8226 0.2547
vn 0.7314 0.6684 0.1356
vn 0.9138 0.3393 -0.2232
vn 0.8748 0.2065 -0.4383
vn 0.6839 0.3932 -0.6145
vn -0.0463 0.3896 -0.9198
vn -0.3629 0.2243 -0.9044
vn -0.6470 0.3999 -0.6492
vn -0.9225 0.3368 -0.1884
vn -0.9822 0.1876 -0.0000
vn -0.9225 0.3368 0.1884
vn -0.6470 0.3999 0.6492
vn -0.3157 0.1951 0.9286
vn -0.0576 0.3294 0.9424
vn 0.6839 0.3932 0.6145
vn 0.8748 0.2065 0.4383
vn 0.9138 0.3393 0.2232
vn 0.3691 0.1328 -0.9198
vn 0.3629 -0.2243 -0.9044
vn 0.0463 -0.3896 -0.9198
vn -0.8855 0.1386 -0.4436
vn -0.8748 -0.2065 -0.4383
vn -0.9138 -0.3393 -0.2232
vn -0.8855 0.1386 0.4436
vn -0.8748 -0.2065 0.4383
vn -0.6839 -0.3932 0.6145
vn 0.3204 0.0958 0.9424
vn 0.3157 -0.1951 0.9286
vn 0.6470 -0.3999 0.6492
vn 0.9921 0.1256 -0.0000
vn 0.9822 -0.1876 -0.0000
vn 0.9225 -0.3368 -0.1884
vn 0.5199 -0.7300 -0.4436
vn 0.2065 -0.8748 -0.4382
vn -0.0459 -0.7876 -0.6145
vn -0.4593 -0.7431 -0.4866
vn -0.5084 -0.8226 -0.2547
vn -0.7314 -0.6684 -0.1356
vn -0.7314 -0.6684 0.1356
vn -0.5084 -0.8226 0.2547
vn -0.4593 -0.7431 0.4866
vn 0.7138 -0.6745 -0.1884
vn 0.6071 -0.7947 -0.0000
vn 0.3313 -0.9435 -0.0000
vn -0.0459 -0.7876 0.6145
vn 0.2065 -0.8748 0.4382
vn 0.5199 -0.7300 0.4436
vn -0.0197 -0.9807 -0.1943
vn 0.4983 -0.2345 -0.8347
vn 0.5171 -0.7445 -0.4224
vn 0.3510 0.9197 -0.1759
vn 0.9287 0.3145 -0.1964
vn 0.8200 -0.5607 0.1145
vn 0.8839 -0.0376 0.4662
vn 0.2275 0.9580 0.1744
vn 0.4059 0.8571 0.3172
vn 0.3235 -0.2095 0.9227
vn 0.0840 -0.6428 0.7614
vn 0.1772 -0.9420 0.2849
vn 0.0580 0.3338 0.9409
vn -0.1265 0.9763 0.1758
vn -0.0115 -0.9834 0.1809
vn -0.6526 -0.5865 0.4797
vn -0.7874 0.3303 0.5205
vn -0.5039 -0.8453 0.1775
vn -0.8923 -0.1037 0.4394
vn -0.4341 0.9008 0.0110
vn -0.9849 -0.1646 -0.0539
vn -0.9481 0.2465 -0.2009
vn -0.3516 0.8723 -0.3398
vn -0.5026 -0.2105 -0.8385
vn -0.0901 0.8821 -0.4623
vn -0.0186 0.7277 -0.6856
vn 0.0266 -0.9585 -0.2838
vn 0.6075 0.1810 -0.7734
vn 0.3919 -0.8577 -0.3329
vn 0.8755 0.3976 -0.2746
vn 0.9209 -0.3712 -0.1190
vn 0.5996 -0.7942 0.0988
vn 0.8780 0.3878 0.2807
vn -0.5546 0.4936 0.6699
vn -0.7340 0.6729 0.0915
vn -0.5486 -0.8304 0.0972
vn -0.8097 -0.5704 -0.1377
vn -0.8648 0.3333 -0.3756
vn -0.5232 -0.6541 -0.5463
vn -0.5952 -0.2720 -0.7562
vn 0.0197 -0.9807 -0.1943
vn -0.4983 -0.2345 -0.8347
vn -0.5171 -0.7445 -0.4224
vn -0.3510 0.9197 -0.1759
vn -0.9287 0.3145 -0.1964
vn -0.8200 -0.5607 0.1145
vn -0.8839 -0.0376 0.4662
vn -0.2275 0.9580 0.1744
vn -0.4059 0.8571 0.3172
vn -0.3235 -0.2095 0.9227
vn -0.0840 -0.6428 0.7614
vn -0.1772 -0.9420 0.2849
vn -0.0580 0.3338 0.9409
vn 0.1265 0.9763 0.1758
vn 0.0114 -0.9834 0.1809
vn 0.6526 -0.5865 0.4797
vn 0.7874 0.3303 0.5205
vn 0.5039 -0.8453 0.1775
vn 0.8923 -0.1037 0.4394
vn 0.4341 0.9008 0.0110
vn 0.9849 -0.1646 -0.0539
vn 0.9481 0.2465 -0.2009
vn 0.3516 0.8723 -0.3398
vn 0.5026 -0.2105 -0.8385
vn 0.0901 0.8821 -0.4623
vn 0.0186 0.7277 -0.6856
vn -0.0266 -0.9585 -0.2838
vn -0.6075 0.1810 -0.7734
vn -0.3919 -0.8577 -0.3329
vn -0.8755 0.3976 -0.2746
vn -0.9209 -0.3712 -0.1190
vn -0.5996 -0.7942 0.0989
vn -0.8780 0.3878 0.2807
vn 0.5546 0.4936 0.6699
vn 0.7340 0.6729 0.0915
vn 0.5486 -0.8304 0.0972
vn 0.8097 -0.5704 -0.1377
vn 0.8648 0.3333 -0.3756
vn 0.5232 -0.6541 -0.5463
vn 0.5952 -0.2720 -0.7562
vn -0.3289 -0.9247 -0.1915
vn 0.3634 0.5369 -0.7614
vn 0.2065 -0.1851 -0.9608
vn 0.4131 0.8483 -0.3313
vn 0.5441 -0.0633 -0.8366
vn 0.0378 -0.8909 -0.4527
vn 0.5136 0.8493 -0.1217
vn 0.7065 0.6066 -0.3644
vn -0.0487 -0.9971 -0.0585
vn 0.9591 0.0890 -0.2687
vn 0.4605 0.8876 0.0093
vn 0.2319 -0.9693 0.0821
vn -0.2846 -0.9580 -0.0344
vn -0.0359 -0.9780 0.2054
vn 0.7921 0.0366 0.6093
vn 0.7277 -0.4227 0.5402
vn 0.4512 0.8780 0.1595
vn 0.4609 0.6802 0.5700
vn 0.2354 -0.6911 0.6834
vn 0.5401 0.7647 0.3515
vn 0.1369 -0.1887 0.9724
vn -0.1708 -0.5868 0.7915
vn -0.1948 -0.7792 0.5958
vn -0.2665 -0.8388 0.4747
vn -0.2844 -0.9205 0.2680
vn 0.0983 0.3177 0.9431
vn -0.3268 -0.9286 0.1757
vn -0.1679 0.2739 0.9470
vn 0.2866 0.9338 0.2144
vn -0.4060 -0.0720 -0.9110
vn -0.3776 -0.3576 0.8542
vn -0.5521 -0.5237 0.6487
vn 0.0206 0.8491 0.5278
vn -0.3625 0.5695 0.7378
vn -0.5545 -0.8073 0.2021
vn -0.7939 -0.1547 0.5881
vn -0.7711 -0.2685 0.5773
vn -0.0953 0.9936 0.0598
vn -0.7229 -0.6851 0.0892
vn 0.0398 0.9987 0.0307
vn -0.9842 0.1573 -0.0816
vn -0.4952 0.7890 -0.3636
vn -0.8756 -0.3889 -0.2865
vn 0.1056 0.9802 -0.1674
vn -0.5545 -0.8004 -0.2277
vn -0.5804 -0.7090 -0.4004
vn 0.0505 0.9108 -0.4097
vn -0.0339 0.5028 -0.8637
vn 0.3013 0.9505 -0.0757
vn -0.1484 -0.2837 -0.9474
vn 0.2363 0.8412 -0.4864
vn 0.2047 0.5895 -0.7814
vn -0.2874 -0.9084 -0.3036
vn -0.0110 -0.1415 -0.9899
vn -0.2228 -0.7228 -0.6542
vn 0.3518 0.8759 -0.3300
vn -0.0418 -0.7563 -0.6529
vn 0.4017 -0.0036 -0.9158
vn 0.4906 0.7237 -0.4853
vn -0.0414 -0.9427 -0.3309
vn 0.8097 0.3427 -0.4763
vn 0.2801 -0.8211 -0.4974
vn 0.6538 0.7374 -0.1698
vn 0.8124 -0.5730 -0.1076
vn 0.4842 -0.8567 -0.1776
vn 0.0199 -0.9970 0.0743
vn 0.7051 0.6621 0.2538
vn 0.8529 0.3758 0.3623
vn 0.4692 -0.6983 0.5405
vn 0.0354 -0.8259 0.5627
vn 0.5668 0.1205 0.8150
vn 0.3102 -0.2276 0.9230
vn 0.2316 0.8583 0.4578
vn 0.3258 0.7008 0.6345
vn -0.5226 -0.6990 0.4882
vn -0.2285 0.5751 0.7855
vn 0.2608 0.9548 0.1427
vn -0.4346 -0.8912 0.1297
vn -0.9240 0.2439 0.2945
vn -0.4382 0.7964 0.4169
vn -0.1341 0.9770 0.1659
vn -0.6515 -0.7537 0.0864
vn -0.8999 -0.3111 -0.3057
vn -0.4001 0.7444 -0.5345
vn -0.5651 0.1469 -0.8118
vn -0.5234 -0.6806 -0.5127
vn -0.0538 0.8580 -0.5108
vn -0.4299 -0.8914 -0.1433
vn 0.2892 0.9499 -0.1187
vn 0.1139 0.5044 -0.8559
vn -0.3059 -0.7896 -0.5320
vn -0.3289 0.9247 -0.1915
vn 0.3634 -0.5369 -0.7614
vn 0.2065 0.1851 -0.9608
vn 0.4131 -0.8483 -0.3313
vn 0.5441 0.0633 -0.8366
vn 0.0378 0.8909 -0.4527
vn 0.5136 -0.8493 -0.1217
vn 0.7065 -0.6066 -0.3644
vn -0.0487 0.9971 -0.0585
vn 0.9591 -0.0890 -0.2687
vn 0.4605 -0.8876 0.0093
vn 0.2319 0.9693 0.0821
vn -0.2846 0.9580 -0.0344
vn -0.0359 0.9780 0.2054
vn 0.7921 -0.0366 0.6093
vn 0.7277 0.4227 0.5402
vn 0.4512 -0.8780 0.1595
vn 0.4609 -0.6802 0.5700
vn 0.2355 0.6911 0.6834
vn 0.5401 -0.7647 0.3515
vn 0.1369 0.1887 0.9724
vn -0.1708 0.5868 0.7915
vn -0.1948 0.7792 0.5958
vn -0.2665 0.8388 0.4747
vn -0.2844 0.9205 0.2680
vn 0.0983 -0.3177 0.9431
vn -0.3268 0.9286 0.1757
vn -0.1679 -0.2739 0.9470
vn 0.2866 -0.9338 0.2144
vn -0.4060 0.0720 -0.9110
vn -0.3776 0.3576 0.8542
vn -0.5521 0.5237 0.6487
vn 0.0206 -0.8491 0.5278
vn -0.3625 -0.5695 0.7378
vn -0.5545 0.8073 0.2021
vn -0.7939 0.1547 0.5881
vn -0.7711 0.2685 0.5773
vn -0.0953 -0.9936 0.0598
vn -0.7230 0.6851 0.0892
vn 0.0398 -0.9987 0.0307
vn -0.9842 -0.1573 -0.0816
vn -0.4952 -0.7890 -0.3637
vn -0.8756 0.3889 -0.2865
vn 0.1056 -0.9802 -0.1674
vn -0.5545 0.8004 -0.2276
vn -0.5804 0.7090 -0.4005
vn 0.0505 -0.9108 -0.4097
vn -0.0339 -0.5028 -0.8637
vn 0.3013 -0.9505 -0.0757
vn -0.1484 0.2837 -0.9474
vn 0.2363 -0.8412 -0.4864
vn 0.2047 -0.5895 -0.7814
vn -0.2874 0.9084 -0.3036
vn -0.0110 0.1415 -0.9899
vn -0.2228 0.7228 -0.6542
vn 0.3518 -0.8759 -0.3300
vn -0.0418 0.7563 -0.6529
vn 0.4017 0.0036 -0.9158
vn 0.4906 -0.7237 -0.4853
vn -0.0414 0.9427 -0.3309
vn 0.8097 -0.3427 -0.4763
vn 0.2801 0.8211 -0.4974
vn 0.6538 -0.7374 -0.1698
vn 0.8124 0.5730 -0.1076
vn 0.4842 0.8567 -0.1776
vn 0.0199 0.9970 0.0743
vn 0.7051 -0.6621 0.2538
vn 0.8529 -0.3759 0.3623
vn 0.4692 0.6983 0.5405
vn 0.0354 0.8259 0.5627
vn 0.5668 -0.1205 0.8150
vn 0.3102 0.2276 0.9230
vn 0.2316 -0.8583 0.4578
vn 0.3258 -0.7008 0.6345
vn -0.5226 0.6990 0.4882
vn -0.2285 -0.5751 0.7855
vn 0.2608 -0.9548 0.1427
vn -0.4346 0.8912 0.1297
vn -0.9240 -0.2439 0.2945
vn -0.4382 -0.7964 0.4169
vn -0.1341 -0.9770 0.1659
vn -0.6515 0.7537 0.0864
vn -0.8999 0.3111 -0.3057
vn -0.4001 -0.7444 -0.5345
vn -0.5651 -0.1469 -0.8118
vn -0.5234 0.6806 -0.5127
vn -0.0538 -0.8580 -0.5108
vn -0.4300 0.8914 -0.1433
vn 0.2892 -0.9499 -0.1187
vn 0.1139 -0.5044 -0.8559
vn -0.3059 0.7896 -0.5320
vn -0.1496 -0.9327 0.3282
vn -0.6805 0.6396 -0.3576
vn -0.9652 -0.2040 -0.1636
vn -0.2638 0.8835 -0.3872
vn -0.8652 -0.0073 -0.5014
vn -0.3788 -0.9229 0.0695
vn -0.0959 0.8854 -0.4549
vn -0.3114 0.7241 -0.6155
vn -0.0464 -0.9892 0.1392
vn -0.2824 0.2491 -0.9264
vn 0.0072 0.9089 -0.4170
vn 0.0695 -0.9951 -0.0700
vn -0.0267 -0.9541 0.2983
vn 0.1645 -0.9779 0.1292
vn 0.6365 0.1566 -0.7552
vn 0.5889 -0.4686 -0.6585
vn 0.1250 0.9028 -0.4114
vn 0.4810 0.7651 -0.4281
vn 0.6322 -0.7665 -0.1133
vn 0.2854 0.8299 -0.4793
vn 0.9713 -0.2165 -0.0991
vn 0.7090 -0.6739 0.2079
vn 0.4996 -0.8340 0.2341
vn 0.3861 -0.8769 0.2863
vn 0.2110 -0.9308 0.2984
vn 0.9104 0.3939 -0.1264
vn 0.1371 -0.9351 0.3267
vn 0.9415 0.3166 0.1154
vn 0.1679 0.9391 -0.2998
vn -0.9142 -0.1435 0.3789
vn 0.8051 -0.4660 0.3670
vn 0.5758 -0.6427 0.5054
vn 0.4435 0.8896 -0.1096
vn 0.7217 0.6462 0.2481
vn 0.1612 -0.8591 0.4858
vn 0.5935 -0.2997 0.7469
vn 0.5601 -0.4225 0.7126
vn 0.0488 0.9982 -0.0363
vn 0.0738 -0.7837 0.6168
vn 0.0244 0.9908 -0.1331
vn -0.0930 0.0753 0.9928
vn -0.3482 0.8773 0.3304
vn -0.2666 -0.5574 0.7863
vn -0.1324 0.9751 -0.1778
vn -0.1821 -0.8546 0.4864
vn -0.3311 -0.7924 0.5123
vn -0.3352 0.9323 -0.1356
vn -0.8115 0.5834 -0.0333
vn -0.0588 0.9491 -0.3094
vn -0.9177 -0.3607 0.1665
vn -0.3968 0.8788 -0.2651
vn -0.6967 0.6778 -0.2347
vn -0.2400 -0.9231 0.3005
vn -0.9839 -0.1763 0.0284
vn -0.5573 -0.7908 0.2532
vn -0.2620 0.9014 -0.3447
vn -0.5640 -0.8172 0.1188
vn -0.9283 0.0491 -0.3687
vn -0.4019 0.7990 -0.4473
vn -0.2682 -0.9544 0.1310
vn -0.4505 0.5040 -0.7369
vn -0.4472 -0.8848 -0.1310
vn -0.1381 0.8161 -0.5611
vn -0.1191 -0.6708 -0.7320
vn -0.1663 -0.9376 -0.3052
vn 0.0597 -0.9941 0.0910
vn 0.2121 0.7658 -0.6071
vn 0.3387 0.5420 -0.7691
vn 0.5265 -0.7857 -0.3248
vn 0.4811 -0.8742 0.0655
vn 0.8170 0.2251 -0.5309
vn 0.9354 -0.2454 -0.2546
vn 0.3714 0.8907 -0.2620
vn 0.5383 0.7759 -0.3289
vn 0.4070 -0.7822 0.4717
vn 0.7477 0.6522 0.1251
vn 0.1112 0.9528 -0.2824
vn 0.1014 -0.9110 0.3996
vn 0.3359 0.2072 0.9188
vn 0.3923 0.8777 0.2751
vn 0.1372 0.9905 -0.0059
vn 0.0699 -0.8271 0.5577
vn -0.2937 -0.4857 0.8233
vn -0.5055 0.8257 0.2503
vn -0.8493 0.1132 0.5157
vn -0.4304 -0.7685 0.4735
vn -0.4335 0.8995 -0.0545
vn -0.1121 -0.9111 0.3966
vn -0.0924 0.9490 -0.3014
vn -0.7900 0.5928 -0.1566
vn -0.4382 -0.8422 0.3141
vn -0.9393 0.1251 0.3194
vn 0.6892 0.6106 -0.3901
vn -0.2452 0.9446 -0.2182
vn 0.8945 0.2219 -0.3882
vn -0.0175 0.7979 -0.6025
vn -0.9464 0.3208 0.0388
vn 0.8857 0.0798 -0.4574
vn 0.7228 0.2601 -0.6402
vn -0.9931 0.0385 0.1107
vn 0.2249 0.2243 -0.9482
vn 0.9097 -0.0060 -0.4152
vn -0.9918 -0.0571 -0.1144
vn -0.9583 0.0222 0.2850
vn -0.9854 -0.1371 0.1008
vn 0.1482 -0.5403 -0.8283
vn -0.4812 -0.4875 -0.7285
vn 0.9059 -0.1043 -0.4104
vn 0.7918 -0.4145 -0.4486
vn -0.8165 -0.5542 -0.1618
vn 0.8375 -0.2399 -0.4909
vn -0.2602 -0.9557 -0.1373
vn -0.7359 -0.6419 0.2156
vn -0.8719 -0.4328 0.2291
vn -0.9013 -0.3291 0.2816
vn -0.9411 -0.1769 0.2881
vn 0.4580 -0.8778 -0.1403
vn -0.9413 -0.1145 0.3175
vn 0.3746 -0.9132 0.1607
vn 0.9471 -0.1404 -0.2885
vn -0.1586 0.8716 0.4638
vn -0.5162 -0.7455 0.4216
vn -0.6702 -0.5019 0.5466
vn 0.9212 -0.3796 -0.0853
vn 0.7001 -0.6409 0.3147
vn -0.8599 -0.1344 0.4925
vn -0.2952 -0.5032 0.8122
vn -0.4230 -0.4759 0.7711
vn 0.9992 -0.0403 0.0009
vn -0.7733 -0.0609 0.6312
vn 0.9944 -0.0202 -0.1040
vn 0.0853 0.0713 0.9938
vn 0.8767 0.2853 0.3872
vn -0.5387 0.2176 0.8139
vn 0.9820 0.1103 -0.1536
vn -0.8561 0.1519 0.4939
vn -0.8008 0.2791 0.5299
vn 0.9526 0.2832 -0.1110
vn 0.6566 0.7541 -0.0141
vn 0.9535 0.0490 -0.2975
vn -0.4195 0.8871 0.1927
vn 0.9047 0.3387 -0.2583
vn 0.7374 0.6289 -0.2463
vn -0.9351 0.2017 0.2913
vn -0.2116 0.9769 0.0283
vn -0.8348 0.4879 0.2551
vn 0.9138 0.2205 -0.3410
vn -0.8641 0.4931 0.1006
vn 0.0498 0.8881 -0.4570
vn 0.8174 0.3424 -0.4633
vn -0.9687 0.2250 0.1044
vn 0.4979 0.3763 -0.7813
vn -0.9082 0.3777 -0.1803
vn 0.8113 0.1146 -0.5734
vn -0.6404 0.0921 -0.7625
vn -0.9240 0.1344 -0.3580
vn -0.9971 -0.0495 0.0583
vn 0.7603 -0.1760 -0.6253
vn 0.5278 -0.2786 -0.8024
vn -0.8078 -0.4435 -0.3883
vn -0.9098 -0.4135 0.0370
vn 0.2393 -0.7460 -0.6214
vn -0.2907 -0.8982 -0.3298
vn 0.9142 -0.3160 -0.2536
vn 0.8145 -0.4695 -0.3408
vn -0.7993 -0.3466 0.4908
vn 0.7164 -0.6753 0.1756
vn 0.9588 -0.0928 -0.2684
vn -0.9139 -0.0845 0.3970
vn 0.2106 -0.2622 0.9418
vn 0.8857 -0.3248 0.3318
vn 0.9930 -0.1135 0.0333
vn -0.8209 -0.0579 0.5681
vn -0.4651 0.2388 0.8525
vn 0.8498 0.4270 0.3091
vn 0.1347 0.7748 0.6177
vn -0.7874 0.3676 0.4949
vn 0.9289 0.3696 -0.0234
vn -0.9144 0.0935 0.3938
vn 0.9542 0.0770 -0.2890
vn 0.6624 0.7314 -0.1622
vn -0.8709 0.3762 0.3161
vt 0.888815 0.495295
vt 0.862621 0.474985
vt 0.886469 0.444377
vt 0.909442 0.951165
vt 0.891391 0.965017
vt 0.892602 0.935205
vt 0.987789 0.564514
vt 0.971538 0.561783
vt 0.974257 0.533492
vt 0.048376 0.750609
vt 0.015474 0.758729
vt 0.034487 0.727832
vt 0.870679 0.937322
vt 0.873585 0.902520
vt 0.932753 0.428859
vt 0.911935 0.455696
vt 0.899044 0.403895
vt 0.066508 0.714767
vt 0.897178 0.879589
vt 0.908684 0.919331
vt 0.863759 0.434173
vt 0.886458 0.865874
vt 0.068041 0.755978
vt 0.858843 0.391865
vt 0.881435 0.376674
vt 0.842893 0.420496
vt 0.943727 0.533492
vt 0.948740 0.561724
vt 0.932607 0.564862
vt 0.955795 0.538276
vt 0.095944 0.746116
vt 0.097287 0.703825
vt 0.125131 0.732353
vt 0.848264 0.380415
vt 0.824188 0.409301
vt 0.937265 0.600973
vt 0.957735 0.597832
vt 0.950459 0.641686
vt 0.965103 0.651358
vt 0.811981 0.462983
vt 0.828973 0.473964
vt 0.932607 0.653583
vt 0.951742 0.688646
vt 0.093334 0.797593
vt 0.965103 0.605126
vt 0.981886 0.599049
vt 0.985405 0.637453
vt 0.965103 0.649560
vt 0.221298 0.863841
vt 0.213588 0.896907
vt 0.197278 0.871979
vt 0.124370 0.782473
vt 0.103443 0.823637
vt 0.125131 0.823611
vt 0.104051 0.844493
vt 0.856182 0.500276
vt 0.824959 0.511362
vt 0.189716 0.897902
vt 0.204840 0.916464
vt 0.076521 0.853894
vt 0.836115 0.532821
vt 0.860875 0.526755
vt 0.052173 0.833676
vt 0.063989 0.788828
vt 0.186762 0.927076
vt 0.201208 0.955585
vt 0.047005 0.856233
vt 0.218703 0.965046
vt 0.036789 0.786312
vt 0.890386 0.532821
vt 0.015230 0.800071
vt 0.995436 0.611500
vt -0.000000 0.763313
vt 0.916012 0.501228
vt 0.932685 0.461494
vt 0.013653 0.726394
vt 0.920134 0.390205
vt 0.058696 0.692549
vt 0.876915 0.864602
vt 0.909442 0.852409
vt 0.221298 0.935865
vt 0.018839 0.828615
vt 0.973788 0.671933
vt 0.119347 0.218395
vt 0.092460 0.108233
vt 0.208348 0.113297
vt 0.732603 0.451135
vt 0.811982 0.508486
vt 0.743941 0.589533
vt 0.208350 0.259922
vt 0.092461 0.345476
vt 0.020839 0.251726
vt 0.646901 0.508071
vt 0.110709 0.429269
vt 0.209470 0.437368
vt 0.145759 0.502820
vt 0.311363 0.600338
vt 0.303399 0.468758
vt 0.389855 0.518807
vt 0.694254 0.077218
vt 0.701495 -0.000000
vt 0.789738 0.059055
vt 0.608559 0.239430
vt 0.639364 0.160022
vt 0.700970 0.253301
vt 0.654969 0.376674
vt 0.040170 0.497637
vt 0.389855 0.681662
vt 0.750452 0.157691
vt 0.732603 0.728200
vt 0.654969 0.803038
vt 0.646901 0.670925
vt 0.180012 0.595097
vt 0.249548 0.655301
vt 0.144915 0.692549
vt -0.000000 0.595097
vt 0.080906 0.595108
vt 0.039107 0.692549
vt 0.476768 0.738889
vt 0.487078 0.600245
vt 0.557930 0.681967
vt 0.578888 0.348645
vt 0.483460 0.376674
vt 0.512686 0.259871
vt 0.593415 0.103866
vt 0.608559 0.232797
vt 0.521225 0.115995
vt 0.430306 0.149927
vt 0.396126 0.259870
vt 0.380583 0.348643
vt 0.332626 0.115995
vt 0.303399 0.232797
vt 0.476768 0.461823
vt 0.557930 0.519112
vt 0.409941 0.027075
vt 0.317214 0.000000
vt 0.505814 -0.000000
vt 0.557930 0.721574
vt 0.567509 0.589608
vt 0.581235 0.814370
vt 0.851344 0.152333
vt 0.799064 0.235912
vt 0.400622 0.813705
vt 0.504498 0.813893
vt 0.250206 0.534839
vt 0.557930 0.458068
vt 0.303399 0.732265
vt 0.400622 0.387339
vt 0.329679 0.376674
vt 0.756995 0.376932
vt 0.811982 0.671340
vt 0.756995 0.803293
vt -0.000000 0.375675
vt 0.608559 0.062401
vt 0.187512 0.383870
vt 0.083895 0.429269
vt 0.281057 0.283715
vt 0.303399 0.151690
vt 0.281055 0.034260
vt -0.000000 0.138430
vt 0.187510 -0.000000
vt 0.083894 0.025645
vt 0.799577 0.330951
vt 0.774330 0.300598
vt 0.798378 0.311554
vt 0.083834 0.965207
vt 0.052643 0.991447
vt 0.056767 0.953919
vt 0.274827 0.948032
vt 0.292759 0.923410
vt 0.293317 0.965720
vt 0.673949 0.873585
vt 0.707771 0.855486
vt 0.704476 0.904253
vt 0.239763 0.904660
vt 0.270196 0.899452
vt 0.293317 0.867439
vt 0.256135 0.856195
vt 0.663463 0.819711
vt 0.690440 0.814370
vt 0.155569 0.940267
vt 0.125131 0.976742
vt 0.125131 0.929365
vt 0.783080 0.253301
vt 0.834901 0.253301
vt 0.815046 0.273146
vt 0.164272 0.969326
vt 0.647030 0.839864
vt 0.832112 0.304739
vt 0.813513 0.852409
vt 0.855179 0.869832
vt 0.839567 0.894533
vt 0.811981 0.901215
vt 0.647030 0.889106
vt 0.839642 0.946900
vt 0.865663 0.917727
vt 0.666230 0.922186
vt 0.101960 0.950435
vt 0.085178 0.924038
vt 0.690813 0.932565
vt 0.765431 0.352156
vt 0.090207 0.991075
vt 0.754048 0.300913
vt 0.243756 0.952449
vt 0.167088 0.989466
vt 0.811981 0.939036
vt 0.870679 0.953364
vt 0.052643 0.926087
vt 0.684840 0.329889
vt 0.698583 0.317259
vt 0.722676 0.327928
vt 0.726055 0.968975
vt 0.753082 0.957621
vt 0.756782 0.994581
vt 0.736708 0.367349
vt 0.695730 0.371177
vt 0.739492 0.344776
vt 0.650669 0.305163
vt 0.642408 0.347291
vt 0.613883 0.307895
vt 0.016966 0.948364
vt 0.018915 0.899861
vt 0.052643 0.904719
vt 0.000000 0.923811
vt 0.000932 0.867761
vt 0.038861 0.856233
vt 0.632661 0.253301
vt 0.608559 0.262995
vt 0.657704 0.941407
vt 0.688516 0.932565
vt 0.688516 0.977369
vt 0.754048 0.290724
vt 0.716271 0.279307
vt 0.722797 0.253301
vt 0.649285 0.970350
vt 0.656944 0.261413
vt 0.769773 0.838305
vt 0.753663 0.860567
vt 0.744908 0.814370
vt 0.723765 0.861501
vt 0.707771 0.842306
vt 0.684840 0.288993
vt 0.682941 0.303013
vt 0.739534 0.912041
vt 0.707771 0.891070
vt 0.684840 0.341232
vt 0.707771 0.953692
vt 0.724455 0.926949
vt 0.670672 0.363044
vt 0.719240 0.994106
vt 0.052643 0.952368
vt 0.647030 0.992130
vt 0.684840 0.275192
vt 0.768733 0.897283
vt 0.715964 0.926949
vt 0.756782 0.928707
vt 0.146209 0.809023
vt 0.156536 0.758513
vt 0.171741 0.796809
vt 0.872256 0.108351
vt 0.867984 0.141827
vt 0.851344 0.105517
vt 0.261065 0.500157
vt 0.280763 0.462604
vt 0.283906 0.495795
vt 0.905465 0.111897
vt 0.891159 0.137432
vt 0.250206 0.464571
vt 0.271542 0.429269
vt 0.125131 0.728706
vt 0.156198 0.714063
vt 0.133915 0.761961
vt 0.920526 0.146000
vt 0.909713 0.169876
vt 0.178531 0.755448
vt 0.282492 0.666511
vt 0.266135 0.634650
vt 0.285068 0.631011
vt 0.923133 0.103307
vt 0.180931 0.692549
vt 0.195003 0.714764
vt 0.201580 0.748441
vt 0.273424 0.601211
vt 0.297927 0.602275
vt 0.300664 0.633465
vt 0.946252 0.109024
vt 0.288775 0.697581
vt 0.302722 0.746920
vt 0.272577 0.728302
vt 0.212267 0.706984
vt 0.224973 0.743423
vt 0.943186 0.152170
vt 0.252709 0.769165
vt 0.247659 0.726479
vt 0.239763 0.783276
vt 0.223887 0.801112
vt 0.203679 0.806564
vt 0.280361 0.784491
vt 0.257299 0.822702
vt 0.942347 0.056175
vt 0.292469 0.540330
vt 0.292410 0.582031
vt 0.263884 0.573051
vt 0.268845 0.537014
vt 0.239763 0.783756
vt 0.229931 0.834891
vt 0.203583 0.845636
vt 0.302722 0.802139
vt 0.288046 0.827817
vt 0.271453 0.845871
vt 0.173943 0.824344
vt 1.000000 0.881446
vt 0.976701 0.892201
vt 0.995977 0.858607
vt 0.970188 0.874548
vt 0.946252 0.027354
vt 0.917995 0.000000
vt 0.192314 0.863841
vt 0.167906 0.849669
vt 0.918166 0.069928
vt 0.902052 0.025068
vt 1.000000 0.908218
vt 0.978514 0.930270
vt 0.887591 0.001882
vt 0.957298 0.936252
vt 0.893185 0.076701
vt 0.143764 0.846628
vt 0.869281 0.065514
vt 0.250206 0.545664
vt 0.301122 0.491398
vt 0.250206 0.675873
vt 0.146122 0.694027
vt 0.250206 0.623347
vt 0.265001 0.692549
vt 0.287684 0.856195
vt 0.955829 0.907624
vt 0.867600 0.035137
vt 0.280432 0.601211
vt 0.125131 0.806645
vt 0.613906 0.932038
vt 0.585917 0.918846
vt 0.599603 0.883136
vt 0.924745 0.793956
vt 0.946931 0.793139
vt 0.940298 0.829543
vt 0.969363 0.792302
vt 0.971549 0.825029
vt 0.880209 0.211733
vt 0.851896 0.222052
vt 0.869181 0.191074
vt 0.964550 0.858607
vt 0.639872 0.854015
vt 0.625281 0.887389
vt 0.603181 0.838923
vt 0.897931 0.177805
vt 0.052643 0.919557
vt 0.086575 0.889506
vt 0.077640 0.924038
vt 0.577758 0.878395
vt 0.052643 0.880911
vt 0.085889 0.869349
vt 0.897574 0.216671
vt 0.566474 0.835993
vt 0.584305 0.814370
vt 0.557930 0.868861
vt 0.114231 0.856233
vt 0.119784 0.879281
vt 0.518056 0.972572
vt 0.502270 0.967971
vt 0.517598 0.945045
vt 0.923444 0.208025
vt 0.927462 0.169876
vt 0.952696 0.199171
vt 0.494119 0.945111
vt 0.506805 0.908580
vt 0.534914 0.905148
vt 0.516662 0.863700
vt 0.493253 0.853348
vt 0.484969 0.912027
vt 0.477213 0.854561
vt 0.557930 0.924748
vt 0.537447 0.850638
vt 0.509068 0.814642
vt 0.920046 0.258443
vt 0.966944 0.746760
vt 0.946539 0.755472
vt 0.930583 0.720752
vt 0.954061 0.705361
vt 0.482120 0.813893
vt 0.949836 0.246325
vt 0.930051 0.286399
vt 0.952696 0.291687
vt 0.932360 0.310506
vt 0.586843 0.944623
vt 0.564943 0.960874
vt 0.125232 0.890444
vt 0.125131 0.863841
vt 0.148322 0.894285
vt 0.151969 0.872010
vt 0.906520 0.318171
vt 0.176535 0.898346
vt 0.883373 0.295531
vt 0.893394 0.249067
vt 0.133558 0.916582
vt 0.161591 0.929365
vt 0.881489 0.323034
vt 0.186762 0.924460
vt 0.869412 0.247274
vt 0.598706 0.968122
vt 0.627317 0.965768
vt 0.851344 0.263405
vt 0.923320 0.750482
vt 0.641090 0.929629
vt 0.647030 0.886237
vt 0.923320 0.823847
vt 0.621824 0.817749
vt 0.103397 0.907702
vt 0.081504 0.856721
vt 0.537447 0.941219
vt 0.186762 0.876392
vt 0.855386 0.293687
vt 0.935049 0.688646
vt 0.366088 0.868982
vt 0.355931 0.918879
vt 0.343331 0.882039
vt 0.975614 0.100052
vt 0.967008 0.135728
vt 0.960505 0.101795
vt 0.946561 0.134688
vt 0.946252 0.103255
vt 0.419602 0.918450
vt 0.409147 0.944839
vt 0.393919 0.915261
vt 0.953507 0.165786
vt 0.387314 0.944506
vt 0.358322 0.960845
vt 0.376611 0.914186
vt 0.433859 0.954998
vt 0.392725 0.950924
vt 0.427787 0.981260
vt 0.337360 0.922381
vt 0.991609 0.743690
vt 0.974961 0.722545
vt 0.986462 0.715077
vt 0.434516 0.910796
vt 0.340452 0.980747
vt 0.326393 0.960682
vt 0.319454 0.928933
vt 0.971549 0.693902
vt 0.987062 0.688646
vt 0.996194 0.712986
vt 0.455719 0.919403
vt 0.456895 0.966119
vt 0.477212 0.935309
vt 0.787236 0.964663
vt 0.793966 0.930338
vt 0.801204 0.962026
vt 0.775307 0.928427
vt 0.785895 0.888085
vt 0.799247 0.875322
vt 0.303399 0.932479
vt 0.303399 0.877052
vt 0.318045 0.872512
vt 0.769773 0.874636
vt 0.786182 0.837915
vt 0.452704 0.866351
vt 0.946252 0.059342
vt 0.953705 0.018153
vt 0.968854 0.030617
vt 0.959269 0.065699
vt 0.801204 0.833093
vt 0.459354 0.840757
vt 0.476040 0.881686
vt 0.770989 0.835233
vt 0.782798 0.817855
vt 0.321094 0.833160
vt 0.342691 0.854807
vt 0.796753 0.814370
vt 0.437824 0.813893
vt 0.332799 0.814143
vt 0.350404 0.828804
vt 0.430731 0.877367
vt 0.420312 0.834393
vt 0.850426 0.275136
vt 0.838039 0.296007
vt 0.834901 0.265462
vt 0.414788 0.816573
vt 0.362965 0.813893
vt 0.373146 0.829964
vt 0.409955 0.883085
vt 0.392725 0.873292
vt 0.974654 0.058337
vt 0.387028 0.869174
vt 0.392725 0.912556
vt 0.971549 0.758598
vt 0.371334 0.977712
vt 0.435230 0.990241
vt 0.316270 0.966370
vt 0.772793 0.960724
vt 0.850426 0.253301
vt 0.458621 0.822552
vt 0.394407 0.845590
vt 0.965930 -0.000000
vt 0.888828 0.570140
vt 0.886325 0.620925
vt 0.862581 0.590370
vt 0.985121 0.238977
vt 0.975325 0.274145
vt 0.968580 0.236199
vt 0.952696 0.272245
vt 0.952696 0.238869
vt 0.846200 0.794254
vt 0.832795 0.817493
vt 0.813117 0.786974
vt 0.959861 0.309195
vt 0.932582 0.636565
vt 0.898797 0.661396
vt 0.911822 0.609678
vt 0.865096 0.829830
vt 0.811981 0.819540
vt 0.857751 0.852409
vt 0.863601 0.631102
vt 0.949052 0.955202
vt 0.932158 0.926798
vt 0.945862 0.918128
vt 0.865750 0.788394
vt 0.881152 0.688646
vt 0.858597 0.673414
vt 0.842725 0.644790
vt 0.928263 0.887313
vt 0.945550 0.881085
vt 0.955829 0.915048
vt 0.893859 0.797673
vt 0.896097 0.840196
vt 0.923320 0.810980
vt 0.848036 0.684964
vt 0.824036 0.656062
vt 0.944437 0.500914
vt 0.951186 0.460821
vt 0.965305 0.500319
vt 0.965305 0.444289
vt 0.811981 0.602448
vt 0.828970 0.591425
vt 0.932753 0.447126
vt 0.946945 0.408201
vt 0.890143 0.746095
vt 0.966855 0.481421
vt 0.976751 0.450045
vt 0.994328 0.463474
vt 0.982451 0.490766
vt 0.964422 0.397594
vt 0.899682 0.719832
vt 0.921491 0.760644
vt 0.921347 0.719562
vt 0.899827 0.699044
vt 0.825093 0.554176
vt 0.856231 0.565157
vt 0.942406 0.384788
vt 0.958480 0.376674
vt 0.872103 0.690197
vt 0.836324 0.532821
vt 0.861021 0.538800
vt 0.860992 0.755545
vt 0.848203 0.710935
vt 0.994328 0.398870
vt 0.989104 0.429400
vt 0.973807 0.394062
vt 0.842529 0.688646
vt 0.833845 0.758734
vt 0.890553 0.532821
vt 0.811981 0.745543
vt 0.978141 0.169876
vt 0.984395 0.196936
vt 0.967462 0.200607
vt 0.952933 0.196925
vt 0.916055 0.564314
vt 0.932607 0.603991
vt 0.923320 0.971179
vt 0.919878 0.675193
vt 0.923320 0.858607
vt 0.962558 0.532826
vt 0.983592 0.376674
vt 0.965305 0.423003
vt 0.814968 0.716919
s 1
usemtl Material
f 47/1/1 48/2/1 10/3/1
f 4/4/2 46/5/2 6/6/2
f 46/7/3 7/8/3 9/9/3
f 8/10/4 4/11/4 11/12/4
f 9/13/5 12/14/5 6/6/5
f 9/15/6 5/16/6 13/17/6
f 8/10/7 11/12/7 17/18/7
f 6/6/8 15/19/8 11/20/8
f 10/3/9 24/21/9 13/17/9
f 12/14/10 14/22/10 15/19/10
f 8/10/11 17/18/11 1/23/11
f 13/17/12 20/24/12 16/25/12
f 48/2/13 24/21/13 10/3/13
f 24/21/14 21/26/14 20/24/14
f 14/27/15 19/28/15 18/29/15
f 14/27/16 16/30/16 19/28/16
f 1/23/17 17/18/17 26/31/17
f 18/32/18 22/33/18 26/31/18
f 19/34/19 20/24/19 23/35/19
f 17/18/20 18/32/20 26/31/20
f 22/36/21 23/37/21 25/38/21
f 23/37/22 27/39/22 25/38/22
f 23/35/23 21/26/23 27/40/23
f 21/26/24 29/41/24 27/40/24
f 21/26/25 24/21/25 29/41/25
f 22/36/26 25/38/26 28/42/26
f 29/41/27 24/21/27 48/2/27
f 25/38/28 30/43/28 28/42/28
f 26/31/29 33/44/29 1/23/29
f 2/45/30 45/46/30 43/47/30 42/48/30
f 25/38/31 27/39/31 30/43/31
f 27/49/32 34/50/32 30/51/32
f 33/44/33 28/52/33 31/53/33
f 30/54/34 32/55/34 31/53/34
f 29/41/35 39/56/35 34/57/35
f 32/58/36 30/51/36 36/59/36
f 30/51/37 34/50/37 36/59/37
f 31/53/38 35/60/38 33/44/38
f 36/61/39 34/57/39 37/62/39
f 33/44/40 41/63/40 38/64/40
f 35/65/41 36/59/41 40/66/41
f 35/60/42 40/67/42 41/63/42
f 40/66/43 36/59/43 42/68/43
f 38/64/44 41/63/44 3/69/44
f 39/56/45 47/1/45 37/62/45
f 42/70/46 37/62/46 47/1/46
f 3/69/47 41/63/47 44/71/47
f 43/47/48 45/46/48 44/72/48
f 38/64/49 8/10/49 1/23/49
f 45/46/50 2/45/50 7/8/50
f 44/71/51 4/11/51 3/69/51
f 44/71/52 46/73/52 4/11/52
f 47/1/53 10/3/53 5/16/53
f 45/46/54 7/8/54 46/7/54
f 2/74/55 5/16/55 7/75/55
f 3/69/56 4/11/56 8/10/56
f 5/16/57 9/15/57 7/75/57
f 46/5/58 9/13/58 6/6/58
f 4/11/59 6/76/59 11/12/59
f 5/16/60 10/3/60 13/17/60
f 12/14/61 15/19/61 6/6/61
f 13/17/62 12/77/62 9/15/62
f 15/78/63 17/18/63 11/12/63
f 12/14/64 16/79/64 14/22/64
f 13/17/65 16/25/65 12/77/65
f 24/21/66 20/24/66 13/17/66
f 15/78/67 18/32/67 17/18/67
f 14/22/68 18/80/68 15/19/68
f 16/25/69 20/24/69 19/34/69
f 20/24/70 21/26/70 23/35/70
f 19/28/71 22/36/71 18/29/71
f 19/28/72 23/37/72 22/36/72
f 26/31/73 28/52/73 33/44/73
f 22/33/74 28/52/74 26/31/74
f 27/40/75 29/41/75 34/57/75
f 30/54/76 31/53/76 28/52/76
f 1/23/77 33/44/77 38/64/77
f 29/41/78 48/2/78 39/56/78
f 32/58/79 36/59/79 35/65/79
f 32/55/80 35/60/80 31/53/80
f 35/60/81 41/63/81 33/44/81
f 39/56/82 37/62/82 34/57/82
f 37/81/83 42/68/83 36/59/83
f 40/67/84 43/82/84 41/63/84
f 40/83/85 42/48/85 43/47/85
f 42/70/86 47/1/86 2/74/86
f 43/82/87 44/71/87 41/63/87
f 39/56/88 48/2/88 47/1/88
f 3/69/89 8/10/89 38/64/89
f 45/46/90 46/7/90 44/72/90
f 47/1/91 5/16/91 2/74/91
f 49/84/92 62/85/92 61/86/92
f 50/87/93 62/88/93 64/89/93
f 49/84/94 61/86/94 66/90/94
f 49/84/95 66/90/95 68/91/95
f 49/84/96 68/91/96 65/92/96
f 50/87/97 64/89/97 71/93/97
f 51/94/98 63/95/98 73/96/98
f 52/97/99 67/98/99 75/99/99
f 53/100/100 69/101/100 77/102/100
f 54/103/101 70/104/101 79/105/101
f 50/87/102 71/93/102 74/106/102
f 51/94/103 73/96/103 76/107/103
f 52/97/104 75/99/104 78/108/104
f 53/100/105 77/102/105 80/109/105
f 54/110/106 79/111/106 72/112/106
f 55/113/107 81/114/107 86/115/107
f 56/116/108 82/117/108 88/118/108
f 57/119/109 83/120/109 89/121/109
f 58/122/110 84/123/110 90/124/110
f 59/125/111 85/126/111 87/127/111
f 87/127/112 90/124/112 60/128/112
f 87/127/113 85/126/113 90/124/113
f 85/126/114 58/122/114 90/124/114
f 90/124/115 89/129/115 60/128/115
f 90/124/116 84/123/116 89/129/116
f 84/123/117 57/130/117 89/129/117
f 89/129/118 88/131/118 60/128/118
f 89/129/119 83/132/119 88/131/119
f 83/120/120 56/133/120 88/134/120
f 88/131/121 86/135/121 60/128/121
f 88/131/122 82/136/122 86/135/122
f 82/117/123 55/113/123 86/115/123
f 86/135/124 87/127/124 60/128/124
f 86/135/125 81/137/125 87/127/125
f 81/137/126 59/125/126 87/127/126
f 72/112/127 85/138/127 59/139/127
f 72/112/128 79/111/128 85/138/128
f 79/111/129 58/140/129 85/138/129
f 80/109/130 84/141/130 58/142/130
f 80/109/131 77/102/131 84/141/131
f 77/143/132 57/119/132 84/144/132
f 78/108/133 83/120/133 57/119/133
f 78/108/134 75/99/134 83/120/134
f 75/99/135 56/133/135 83/120/135
f 76/107/136 82/117/136 56/116/136
f 76/107/137 73/96/137 82/117/137
f 73/96/138 55/113/138 82/117/138
f 74/145/139 81/114/139 55/113/139
f 74/106/140 71/93/140 81/146/140
f 71/93/141 59/139/141 81/146/141
f 79/105/142 80/109/142 58/142/142
f 79/105/143 70/104/143 80/109/143
f 70/104/144 53/100/144 80/109/144
f 77/143/145 78/108/145 57/119/145
f 77/143/146 69/147/146 78/108/146
f 69/147/147 52/97/147 78/108/147
f 75/99/148 76/148/148 56/133/148
f 75/99/149 67/98/149 76/148/149
f 67/98/150 51/149/150 76/148/150
f 73/96/151 74/145/151 55/113/151
f 73/96/152 63/95/152 74/145/152
f 63/150/153 50/87/153 74/106/153
f 71/93/154 72/112/154 59/139/154
f 71/93/155 64/89/155 72/112/155
f 64/89/156 54/110/156 72/112/156
f 65/151/157 70/152/157 54/110/157
f 65/92/158 68/91/158 70/153/158
f 68/154/159 53/100/159 70/104/159
f 68/91/160 69/155/160 53/156/160
f 68/91/161 66/90/161 69/155/161
f 66/90/162 52/157/162 69/155/162
f 66/90/163 67/158/163 52/157/163
f 66/90/164 61/86/164 67/158/164
f 61/86/165 51/159/165 67/158/165
f 64/89/166 65/151/166 54/110/166
f 64/160/167 62/85/167 65/92/167
f 62/85/168 49/84/168 65/92/168
f 61/86/169 63/161/169 51/159/169
f 61/86/170 62/85/170 63/161/170
f 62/85/171 50/162/171 63/161/171
f 109/163/172 101/164/172 112/165/172
f 92/166/173 95/167/173 93/168/173
f 95/169/174 96/170/174 93/171/174
f 91/172/175 98/173/175 94/174/175
f 95/169/176 98/175/176 97/176/176
f 96/170/177 97/176/177 100/177/177
f 97/176/178 99/178/178 100/177/178
f 91/172/179 102/179/179 98/173/179
f 98/173/180 102/179/180 99/180/180
f 99/181/181 104/182/181 100/183/181
f 100/184/182 104/185/182 103/186/182
f 100/184/183 103/186/183 101/164/183
f 99/181/184 102/187/184 104/182/184
f 102/179/185 91/172/185 105/188/185
f 103/186/186 112/165/186 101/164/186
f 103/186/187 104/185/187 107/189/187
f 104/190/188 105/191/188 106/192/188
f 103/186/189 107/189/189 112/165/189
f 106/192/190 107/193/190 104/190/190
f 105/188/191 91/172/191 108/194/191
f 106/192/192 110/195/192 107/193/192
f 106/192/193 108/196/193 110/195/193
f 91/172/194 111/197/194 108/194/194
f 111/198/195 93/168/195 110/199/195
f 111/197/196 91/172/196 94/174/196
f 111/197/197 94/174/197 92/200/197
f 109/163/198 93/201/198 101/164/198
f 92/166/199 94/202/199 95/167/199
f 93/201/200 96/203/200 101/164/200
f 95/169/201 94/204/201 98/175/201
f 96/170/202 95/169/202 97/176/202
f 101/164/203 96/203/203 100/184/203
f 97/176/204 98/175/204 99/178/204
f 104/182/205 102/187/205 105/205/205
f 106/192/206 105/191/206 108/196/206
f 112/165/207 107/189/207 109/163/207
f 109/206/208 107/193/208 110/195/208
f 110/195/209 108/196/209 111/207/209
f 110/199/210 93/168/210 109/208/210
f 111/198/211 92/166/211 93/168/211
f 131/209/212 134/210/212 123/211/212
f 114/212/213 115/213/213 117/214/213
f 117/215/214 115/216/214 118/217/214
f 113/218/215 116/219/215 120/220/215
f 117/221/216 119/222/216 120/223/216
f 118/224/217 122/225/217 119/222/217
f 119/222/218 122/225/218 121/226/218
f 113/218/219 120/220/219 124/227/219
f 120/220/220 121/228/220 124/227/220
f 121/229/221 122/230/221 126/231/221
f 122/232/222 125/233/222 126/234/222
f 122/232/223 123/211/223 125/233/223
f 121/229/224 126/231/224 124/235/224
f 124/227/225 127/236/225 113/218/225
f 125/233/226 123/211/226 134/210/226
f 125/237/227 129/238/227 126/239/227
f 126/239/228 128/240/228 127/241/228
f 125/233/229 134/210/229 129/242/229
f 128/240/230 126/239/230 129/238/230
f 127/236/231 130/243/231 113/218/231
f 128/240/232 129/238/232 132/244/232
f 128/240/233 132/244/233 130/245/233
f 113/218/234 130/243/234 133/246/234
f 133/247/235 132/248/235 115/213/235
f 133/246/236 116/219/236 113/218/236
f 133/246/237 114/249/237 116/219/237
f 131/209/238 123/211/238 115/216/238
f 114/212/239 117/214/239 116/250/239
f 115/216/240 123/211/240 118/217/240
f 117/221/241 120/223/241 116/251/241
f 118/224/242 119/222/242 117/221/242
f 123/211/243 122/232/243 118/217/243
f 119/222/244 121/226/244 120/223/244
f 126/231/245 127/252/245 124/235/245
f 128/253/246 130/243/246 127/236/246
f 134/210/247 131/209/247 129/242/247
f 131/254/248 132/244/248 129/238/248
f 132/244/249 133/255/249 130/245/249
f 132/248/250 131/256/250 115/213/250
f 133/247/251 115/213/251 114/212/251
f 181/257/252 144/258/252 182/259/252
f 138/260/253 140/261/253 180/262/253
f 180/263/254 143/264/254 141/265/254
f 142/266/255 145/267/255 138/260/255
f 143/264/256 140/268/256 146/269/256
f 143/270/257 147/271/257 139/272/257
f 142/266/258 151/273/258 145/267/258
f 140/261/259 145/267/259 149/274/259
f 144/258/260 147/271/260 158/275/260
f 146/276/261 149/277/261 148/278/261
f 142/266/262 135/279/262 151/273/262
f 147/271/263 150/280/263 154/281/263
f 182/259/264 144/258/264 158/275/264
f 158/275/265 154/281/265 155/282/265
f 148/278/266 152/283/266 153/284/266
f 148/278/267 153/284/267 150/285/267
f 135/279/268 160/286/268 151/273/268
f 152/287/269 160/288/269 156/289/269
f 153/290/270 157/291/270 154/281/270
f 151/273/271 160/286/271 152/292/271
f 156/289/272 159/293/272 157/294/272
f 157/291/273 159/295/273 161/296/273
f 157/291/274 161/296/274 155/282/274
f 155/282/275 161/296/275 163/297/275
f 155/282/276 163/297/276 158/275/276
f 156/289/277 162/298/277 159/293/277
f 163/297/278 182/259/278 158/275/278
f 159/293/279 162/298/279 164/299/279
f 160/286/280 135/279/280 167/300/280
f 136/301/281 176/302/281 177/303/281 179/304/281
f 159/293/282 164/299/282 161/305/282
f 161/296/283 164/306/283 168/307/283
f 167/308/284 165/309/284 162/298/284
f 164/299/285 165/309/285 166/310/285
f 163/297/286 168/307/286 173/311/286
f 166/312/287 170/313/287 164/314/287
f 164/314/288 170/313/288 168/315/288
f 165/316/289 167/300/289 169/317/289
f 170/318/290 171/319/290 168/307/290
f 167/300/291 172/320/291 175/321/291
f 169/322/292 174/323/292 170/313/292
f 169/317/293 175/321/293 174/324/293
f 174/323/294 176/325/294 170/313/294
f 172/320/295 137/326/295 175/321/295
f 173/311/296 171/319/296 181/257/296
f 176/327/297 181/257/297 171/319/297
f 137/326/298 178/328/298 175/321/298
f 177/303/299 178/329/299 179/304/299
f 172/320/300 135/279/300 142/266/300
f 179/304/301 141/265/301 136/301/301
f 178/328/302 137/326/302 138/260/302
f 178/328/303 138/260/303 180/262/303
f 181/257/304 139/272/304 144/258/304
f 179/304/305 180/263/305 141/265/305
f 136/301/306 141/265/306 139/330/306
f 137/326/307 142/266/307 138/260/307
f 139/330/308 141/265/308 143/264/308
f 180/263/309 140/268/309 143/264/309
f 138/260/310 145/267/310 140/261/310
f 139/272/311 147/271/311 144/258/311
f 146/276/312 140/331/312 149/277/312
f 147/271/313 143/270/313 146/332/313
f 149/274/314 145/267/314 151/273/314
f 146/276/315 148/278/315 150/285/315
f 147/271/316 146/332/316 150/280/316
f 158/275/317 147/271/317 154/281/317
f 149/277/318 151/333/318 152/283/318
f 148/278/319 149/277/319 152/283/319
f 150/280/320 153/290/320 154/281/320
f 154/281/321 157/291/321 155/282/321
f 153/334/322 152/287/322 156/289/322
f 153/334/323 156/289/323 157/294/323
f 160/288/324 167/308/324 162/298/324
f 156/289/325 160/288/325 162/298/325
f 161/296/326 168/307/326 163/297/326
f 164/299/327 162/298/327 165/309/327
f 135/279/328 172/320/328 167/300/328
f 163/297/329 173/311/329 182/259/329
f 166/312/330 169/322/330 170/313/330
f 166/310/331 165/309/331 169/335/331
f 169/317/332 167/300/332 175/321/332
f 173/311/333 168/307/333 171/319/333
f 171/336/334 170/313/334 176/325/334
f 174/324/335 175/321/335 177/337/335
f 174/338/336 177/303/336 176/302/336
f 176/327/337 136/339/337 181/257/337
f 177/337/338 175/321/338 178/328/338
f 173/311/339 181/257/339 182/259/339
f 137/326/340 172/320/340 142/266/340
f 179/304/341 178/329/341 180/263/341
f 181/257/342 136/339/342 139/272/342
f 229/340/343 230/341/343 192/342/343
f 186/343/344 228/344/344 188/345/344
f 228/344/345 189/346/345 191/347/345
f 190/348/346 186/349/346 193/350/346
f 191/347/347 194/351/347 188/345/347
f 191/352/348 187/353/348 195/354/348
f 190/348/349 193/350/349 199/355/349
f 188/356/350 197/357/350 193/358/350
f 192/342/351 206/359/351 195/354/351
f 194/360/352 196/361/352 197/357/352
f 190/348/353 199/355/353 183/362/353
f 195/354/354 202/363/354 198/364/354
f 230/341/355 206/359/355 192/342/355
f 206/359/356 203/365/356 202/363/356
f 196/361/357 201/366/357 200/367/357
f 196/368/358 198/369/358 201/370/358
f 183/362/359 199/355/359 208/371/359
f 200/372/360 204/373/360 208/371/360
f 201/370/361 202/374/361 205/375/361
f 199/355/362 200/372/362 208/371/362
f 204/376/363 205/375/363 207/377/363
f 205/375/364 209/378/364 207/377/364
f 205/375/365 203/379/365 209/378/365
f 203/379/366 211/380/366 209/378/366
f 203/365/367 206/359/367 211/381/367
f 204/376/368 207/377/368 210/382/368
f 211/381/369 206/359/369 230/341/369
f 207/377/370 212/383/370 210/382/370
f 208/371/371 215/384/371 183/362/371
f 184/385/372 227/386/372 225/387/372 224/388/372
f 207/377/373 209/378/373 212/383/373
f 209/378/374 216/389/374 212/383/374
f 215/384/375 210/390/375 213/391/375
f 212/392/376 214/393/376 213/391/376
f 211/381/377 221/394/377 216/395/377
f 214/396/378 212/397/378 218/398/378
f 212/397/379 216/399/379 218/398/379
f 213/391/380 217/400/380 215/384/380
f 218/398/381 216/399/381 219/401/381
f 215/384/382 223/402/382 220/403/382
f 217/404/383 218/398/383 222/405/383
f 217/400/384 222/406/384 223/402/384
f 222/405/385 218/398/385 224/407/385
f 220/403/386 223/402/386 185/408/386
f 221/394/387 229/340/387 219/409/387
f 224/410/388 219/409/388 229/340/388
f 185/408/389 223/402/389 226/411/389
f 225/387/390 227/386/390 226/412/390
f 220/403/391 190/348/391 183/362/391
f 227/386/392 184/385/392 189/346/392
f 226/411/393 186/349/393 185/408/393
f 226/412/394 228/344/394 186/343/394
f 229/340/395 192/342/395 187/353/395
f 227/386/396 189/346/396 228/344/396
f 184/413/397 187/353/397 189/414/397
f 185/408/398 186/349/398 190/348/398
f 187/353/399 191/352/399 189/414/399
f 228/344/400 191/347/400 188/345/400
f 186/343/401 188/345/401 193/415/401
f 187/353/402 192/342/402 195/354/402
f 194/360/403 197/357/403 188/356/403
f 195/354/404 194/416/404 191/352/404
f 197/357/405 199/417/405 193/358/405
f 194/360/406 198/418/406 196/361/406
f 195/354/407 198/364/407 194/416/407
f 206/359/408 202/363/408 195/354/408
f 197/357/409 200/367/409 199/417/409
f 196/361/410 200/367/410 197/357/410
f 198/369/411 202/374/411 201/370/411
f 202/374/412 203/379/412 205/375/412
f 201/370/413 204/376/413 200/419/413
f 201/370/414 205/375/414 204/376/414
f 208/371/415 210/390/415 215/384/415
f 204/373/416 210/390/416 208/371/416
f 209/378/417 211/380/417 216/389/417
f 212/392/418 213/391/418 210/390/418
f 183/362/419 215/384/419 220/403/419
f 211/381/420 230/341/420 221/394/420
f 214/396/421 218/398/421 217/404/421
f 214/393/422 217/400/422 213/391/422
f 217/400/423 223/402/423 215/384/423
f 221/420/424 219/401/424 216/399/424
f 219/401/425 224/407/425 218/398/425
f 222/406/426 225/421/426 223/402/426
f 222/422/427 224/388/427 225/387/427
f 224/410/428 229/340/428 184/413/428
f 225/421/429 226/411/429 223/402/429
f 221/394/430 230/341/430 229/340/430
f 185/408/431 190/348/431 220/403/431
f 227/386/432 228/344/432 226/412/432
f 229/340/433 187/353/433 184/413/433
f 277/423/434 240/424/434 278/425/434
f 234/426/435 236/427/435 276/428/435
f 276/428/436 239/429/436 237/430/436
f 238/431/437 241/432/437 234/433/437
f 239/429/438 236/427/438 242/434/438
f 239/435/439 243/436/439 235/437/439
f 238/431/440 247/438/440 241/432/440
f 236/439/441 241/432/441 245/440/441
f 240/424/442 243/436/442 254/441/442
f 242/442/443 245/443/443 244/444/443
f 238/431/444 231/445/444 247/438/444
f 243/436/445 246/446/445 250/447/445
f 278/425/446 240/424/446 254/441/446
f 254/441/447 250/447/447 251/448/447
f 244/444/448 248/449/448 249/450/448
f 244/444/449 249/450/449 246/451/449
f 231/445/450 256/452/450 247/438/450
f 248/453/451 256/452/451 252/454/451
f 249/455/452 253/456/452 250/457/452
f 247/438/453 256/452/453 248/453/453
f 252/458/454 255/459/454 253/456/454
f 253/456/455 255/459/455 257/460/455
f 253/461/456 257/462/456 251/448/456
f 251/448/457 257/462/457 259/463/457
f 251/448/458 259/463/458 254/441/458
f 252/458/459 258/464/459 255/459/459
f 259/463/460 278/425/460 254/441/460
f 255/459/461 258/464/461 260/465/461
f 256/452/462 231/445/462 263/466/462
f 232/467/463 272/468/463 273/469/463 275/470/463
f 255/459/464 260/465/464 257/460/464
f 257/460/465 260/465/465 264/471/465
f 263/466/466 261/472/466 258/473/466
f 260/465/467 261/474/467 262/475/467
f 259/463/468 264/476/468 269/477/468
f 262/475/469 266/478/469 260/465/469
f 260/465/470 266/478/470 264/471/470
f 261/472/471 263/466/471 265/479/471
f 266/480/472 267/481/472 264/476/472
f 263/466/473 268/482/473 271/483/473
f 265/484/474 270/485/474 266/486/474
f 265/479/475 271/483/475 270/487/475
f 270/488/476 272/489/476 266/480/476
f 268/482/477 233/490/477 271/483/477
f 269/477/478 267/481/478 277/423/478
f 272/489/479 277/423/479 267/481/479
f 233/490/480 274/491/480 271/483/480
f 273/469/481 274/492/481 275/470/481
f 268/482/482 231/445/482 238/431/482
f 275/470/483 237/430/483 232/467/483
f 274/491/484 233/490/484 234/433/484
f 274/492/485 234/426/485 276/428/485
f 277/423/486 235/437/486 240/424/486
f 275/470/487 276/428/487 237/430/487
f 232/493/488 237/494/488 235/437/488
f 233/490/489 238/431/489 234/433/489
f 235/437/490 237/494/490 239/435/490
f 276/428/491 236/427/491 239/429/491
f 234/433/492 241/432/492 236/439/492
f 235/437/493 243/436/493 240/424/493
f 242/442/494 236/495/494 245/443/494
f 243/436/495 239/435/495 242/496/495
f 245/440/496 241/432/496 247/438/496
f 242/442/497 244/444/497 246/451/497
f 243/436/498 242/496/498 246/446/498
f 254/441/499 243/436/499 250/447/499
f 245/440/500 247/438/500 248/453/500
f 244/497/501 245/440/501 248/453/501
f 246/446/502 249/498/502 250/447/502
f 250/447/503 253/461/503 251/448/503
f 249/455/504 248/499/504 252/458/504
f 249/455/505 252/458/505 253/456/505
f 256/452/506 263/466/506 258/473/506
f 252/454/507 256/452/507 258/473/507
f 257/462/508 264/476/508 259/463/508
f 260/465/509 258/464/509 261/474/509
f 231/445/510 268/482/510 263/466/510
f 259/463/511 269/477/511 278/425/511
f 262/500/512 265/484/512 266/486/512
f 262/501/513 261/472/513 265/479/513
f 265/479/514 263/466/514 271/483/514
f 269/477/515 264/476/515 267/481/515
f 267/481/516 266/480/516 272/489/516
f 270/487/517 271/483/517 273/502/517
f 270/503/518 273/469/518 272/468/518
f 272/489/519 232/493/519 277/423/519
f 273/502/520 271/483/520 274/491/520
f 269/477/521 277/423/521 278/425/521
f 233/490/522 268/482/522 238/431/522
f 275/470/523 274/492/523 276/428/523
f 277/423/524 232/493/524 235/437/524
f 325/504/525 288/505/525 326/506/525
f 282/507/526 284/508/526 324/509/526
f 324/509/527 287/510/527 285/511/527
f 286/512/528 289/513/528 282/514/528
f 287/510/529 284/508/529 290/515/529
f 287/516/530 291/517/530 283/518/530
f 286/512/531 295/519/531 289/513/531
f 284/520/532 289/513/532 293/521/532
f 288/505/533 291/517/533 302/522/533
f 290/523/534 293/524/534 292/525/534
f 286/512/535 279/526/535 295/519/535
f 291/517/536 294/527/536 298/528/536
f 326/506/537 288/505/537 302/522/537
f 302/522/538 298/528/538 299/529/538
f 292/525/539 296/530/539 297/531/539
f 292/525/540 297/531/540 294/532/540
f 279/526/541 304/533/541 295/519/541
f 296/534/542 304/533/542 300/535/542
f 297/536/543 301/537/543 298/528/543
f 295/519/544 304/533/544 296/534/544
f 300/538/545 303/539/545 301/540/545
f 301/540/546 303/539/546 305/541/546
f 301/537/547 305/542/547 299/529/547
f 299/529/548 305/542/548 307/543/548
f 299/529/549 307/543/549 302/522/549
f 300/538/550 306/544/550 303/539/550
f 307/543/551 326/506/551 302/522/551
f 303/539/552 306/544/552 308/545/552
f 304/533/553 279/526/553 311/546/553
f 280/547/554 320/548/554 321/549/554 323/550/554
f 303/539/555 308/545/555 305/541/555
f 305/541/556 308/545/556 312/551/556
f 311/546/557 309/552/557 306/553/557
f 308/554/558 309/552/558 310/555/558
f 307/543/559 312/556/559 317/557/559
f 310/558/560 314/559/560 308/545/560
f 308/545/561 314/559/561 312/551/561
f 309/552/562 311/546/562 313/560/562
f 314/561/563 315/562/563 312/556/563
f 311/546/564 316/563/564 319/564/564
f 313/565/565 318/566/565 314/567/565
f 313/560/566 319/564/566 318/568/566
f 318/566/567 320/548/567 314/567/567
f 316/563/568 281/569/568 319/564/568
f 317/557/569 315/562/569 325/504/569
f 320/570/570 325/504/570 315/562/570
f 281/569/571 322/571/571 319/564/571
f 321/572/572 322/573/572 323/574/572
f 316/563/573 279/526/573 286/512/573
f 323/574/574 285/511/574 280/575/574
f 322/571/575 281/569/575 282/514/575
f 322/573/576 282/507/576 324/509/576
f 325/504/577 283/518/577 288/505/577
f 323/574/578 324/509/578 285/511/578
f 280/576/579 285/577/579 283/518/579
f 281/569/580 286/512/580 282/514/580
f 283/518/581 285/577/581 287/516/581
f 324/509/582 284/508/582 287/510/582
f 282/514/583 289/513/583 284/520/583
f 283/518/584 291/517/584 288/505/584
f 290/523/585 284/578/585 293/524/585
f 291/517/586 287/516/586 290/579/586
f 293/521/587 289/513/587 295/519/587
f 290/523/588 292/525/588 294/532/588
f 291/517/589 290/579/589 294/527/589
f 302/522/590 291/517/590 298/528/590
f 293/521/591 295/519/591 296/534/591
f 292/525/592 293/524/592 296/530/592
f 294/527/593 297/536/593 298/528/593
f 298/528/594 301/537/594 299/529/594
f 297/531/595 296/530/595 300/580/595
f 297/581/596 300/538/596 301/540/596
f 304/533/597 311/546/597 306/553/597
f 300/535/598 304/533/598 306/553/598
f 305/542/599 312/556/599 307/543/599
f 308/554/600 306/553/600 309/552/600
f 279/526/601 316/563/601 311/546/601
f 307/543/602 317/557/602 326/506/602
f 310/582/603 313/565/603 314/567/603
f 310/555/604 309/552/604 313/560/604
f 313/560/605 311/546/605 319/564/605
f 317/557/606 312/556/606 315/562/606
f 315/583/607 314/567/607 320/548/607
f 318/568/608 319/564/608 321/584/608
f 318/566/609 321/549/609 320/548/609
f 320/570/610 280/576/610 325/504/610
f 321/584/611 319/564/611 322/571/611
f 317/557/612 325/504/612 326/506/612
f 281/569/613 316/563/613 286/512/613
f 323/574/614 322/573/614 324/509/614
f 325/504/615 280/576/615 283/518/615
